# xmcd CD database file
#
# Track frame offsets:
#	183
#	15628
#	37525
#	54838
#	74973
#	91828
#	108573
#	130913
#	144563
#	161908
#
# Disc length: 2525 seconds
#
# Revision: 0
# Processed by: cddbd v1.4b41PL1 Copyright (c) Steve Scherf et al.
# Submitted via: Feurio! 1.61 - http://www.feurio.com
#
DISCID=8409db0a
DTITLE=Incognito - Incognito-1992
DYEAR=1900
DGENRE=
TTITLE0=You're What I Want
TTITLE1=Train Comin'
TTITLE2=Class With Sass
TTITLE3=Make It To The Other Side
TTITLE4=B flat Boogie
TTITLE5=Hot Blues and Cold Beer
TTITLE6=Driving Wheel
TTITLE7=When My Baby She Left Me
TTITLE8=Sugar Sweet
TTITLE9=Blue Angel
EXTD=Input by:  Sandy Larsen (olarsen@telusplanet.net)\r\nIncognito-1992
EXTT0=
EXTT1=
EXTT2=
EXTT3=
EXTT4=
EXTT5=
EXTT6=
EXTT7=
EXTT8=
EXTT9=
PLAYORDER=
